<?xml version="1.0" standalone="no"?>
<!DOCTYPE svg PUBLIC "-//W3C//DTD SVG 20010904//EN"
 "http://www.w3.org/TR/2001/REC-SVG-20010904/DTD/svg10.dtd">
<svg version="1.0" xmlns="http://www.w3.org/2000/svg"
 width="700.000000pt" height="700.000000pt" viewBox="0 0 700.000000 700.000000"
 preserveAspectRatio="xMidYMid meet">
<metadata>
Created by potrace 1.14, written by Peter Selinger 2001-2017
</metadata>
<g transform="translate(0.000000,700.000000) scale(0.100000,-0.100000)"
fill="#000000" stroke="none">
<path d="M2705 6985 c-174 -38 -337 -157 -428 -313 -30 -51 -61 -126 -60 -142
1 -3 -3 -12 -7 -20 -17 -33 -21 -106 -21 -385 0 -235 3 -305 17 -365 43 -196
183 -367 368 -450 129 -59 147 -60 933 -60 687 0 719 1 803 21 215 50 401 221
468 429 32 100 34 131 34 441 -1 260 -3 296 -22 365 -44 163 -139 296 -274
387 -46 31 -163 81 -216 93 -19 4 -372 9 -785 10 -591 2 -763 0 -810 -11z
m1536 -442 c53 -24 82 -52 112 -108 20 -38 21 -55 21 -310 0 -259 -1 -272 -22
-312 -28 -54 -56 -81 -111 -105 -42 -20 -67 -20 -740 -21 -677 0 -698 1 -742
20 -53 24 -82 52 -112 108 -19 37 -21 57 -22 285 0 135 3 264 7 288 16 87 91
157 185 170 25 4 346 7 712 6 646 -1 668 -2 712 -21z"/>
<path d="M1220 6339 c-99 -15 -123 -20 -183 -40 -122 -40 -281 -141 -357 -226
-135 -150 -219 -329 -236 -504 -9 -93 -9 -4713 0 -4794 38 -352 290 -641 651
-749 70 -21 73 -21 2385 -23 l2315 -2 95 25 c366 94 621 381 666 749 9 69 9
4715 0 4795 -41 381 -338 694 -724 761 -38 7 -177 12 -322 13 l-255 1 -3 -214
c-1 -129 1 -217 7 -220 5 -4 112 -6 238 -5 241 1 307 -7 386 -47 67 -34 127
-88 169 -153 78 -122 72 107 73 -2516 1 -1741 -2 -2360 -11 -2402 -37 -182
-187 -322 -371 -346 -101 -13 -4471 -6 -4527 7 -165 39 -296 173 -329 336 -10
46 -13 586 -12 2405 1 2630 -6 2397 76 2519 44 66 100 117 164 148 87 44 111
47 375 48 l255 1 0 219 0 220 -240 0 c-132 0 -260 -3 -285 -6z"/>
<path d="M4722 4364 c-80 -16 -153 -56 -217 -119 -53 -51 -108 -149 -121 -215
-10 -50 -11 -2284 -1 -2350 22 -153 140 -292 292 -345 58 -20 169 -26 228 -13
115 24 243 120 293 221 56 109 54 58 51 1322 l-2 1170 -26 63 c-86 202 -285
309 -497 266z"/>
<path d="M3395 3486 c-160 -41 -295 -182 -323 -337 -5 -26 -9 -361 -9 -745 0
-746 1 -769 50 -858 57 -105 174 -194 293 -222 233 -54 475 103 522 341 6 30
10 324 9 745 0 753 -1 764 -55 863 -40 75 -114 142 -199 183 -62 30 -87 36
-156 40 -48 2 -103 -2 -132 -10z"/>
<path d="M2130 2623 c-46 -7 -145 -45 -185 -73 -53 -36 -119 -108 -143 -157
-48 -94 -52 -128 -49 -442 2 -261 4 -302 21 -346 64 -170 220 -284 400 -290
199 -8 381 128 437 325 16 60 19 541 4 626 -29 159 -141 286 -296 338 -47 15
-143 25 -189 19z"/>
</g>
</svg>
